<svg width="32" height="32" viewBox="0 0 32 32" fill="none" xmlns="http://www.w3.org/2000/svg">
<path d="M20.7703 4.50931L23.437 5.90871C26.3059 7.41423 27.7403 8.16699 28.5368 9.51967C29.3334 10.8724 29.3334 12.5556 29.3334 15.922V16.078C29.3334 19.4444 29.3334 21.1278 28.5368 22.4804C27.7403 23.8331 26.3059 24.5858 23.437 26.0914L20.7703 27.4907C18.4295 28.7191 17.2591 29.3334 16 29.3334C14.741 29.3334 13.5706 28.7191 11.2297 27.4907L8.56307 26.0914C5.69419 24.5858 4.25974 23.8331 3.46322 22.4804C2.66669 21.1278 2.66669 19.4444 2.66669 16.078V15.922C2.66669 12.5556 2.66669 10.8724 3.46322 9.51967C4.25974 8.16699 5.69419 7.41423 8.56307 5.90871L11.2297 4.50931C13.5706 3.2809 14.741 2.66669 16 2.66669C17.2591 2.66669 18.4295 3.2809 20.7703 4.50931Z" stroke="#EAB308" stroke-width="1.5" stroke-linecap="round"/>
<path d="M28 10L22.6667 12.6667M22.6667 12.6667C22.6667 12.6667 22.2604 12.8698 22 13C19.6568 14.1716 16 16 16 16M22.6667 12.6667V17.3333M22.6667 12.6667L10 6M16 16L4 10M16 16V28.6667" stroke="#EAB308" stroke-width="1.5" stroke-linecap="round"/>
</svg>
