<svg width="32" height="32" viewBox="0 0 32 32" fill="none" xmlns="http://www.w3.org/2000/svg">
<path d="M6.30466 21.516C4.24396 19.4553 3.2136 18.4249 2.83021 17.0881C2.44681 15.7513 2.77446 14.3314 3.42977 11.4918L3.80768 9.85418C4.35898 7.46516 4.63465 6.27064 5.45261 5.45267C6.27058 4.63471 7.4651 4.35904 9.85412 3.80774L11.4917 3.42983C14.3314 2.77452 15.7512 2.44687 17.088 2.83027C18.4248 3.21366 19.4552 4.24402 21.5159 6.30472L23.9554 8.74424C27.5407 12.3296 29.3334 14.1222 29.3334 16.3498C29.3334 18.5774 27.5407 20.3701 23.9554 23.9554C20.37 27.5408 18.5774 29.3334 16.3498 29.3334C14.1222 29.3334 12.3295 27.5408 8.74418 23.9554L6.30466 21.516Z" stroke="#EAB308" stroke-width="1.5"/>
<path d="M13.3619 13.7242C14.4033 12.6828 14.4033 10.9944 13.3619 9.95301C12.3205 8.91161 10.6321 8.91161 9.5907 9.95301C8.5493 10.9944 8.5493 12.6828 9.5907 13.7242C10.6321 14.7656 12.3205 14.7656 13.3619 13.7242Z" stroke="#EAB308" stroke-width="1.5"/>
<path d="M15.3889 24.6667L24.6944 15.3611" stroke="#EAB308" stroke-width="1.5" stroke-linecap="round"/>
</svg>
