<svg width="26" height="24" viewBox="0 0 26 24" fill="none" xmlns="http://www.w3.org/2000/svg">
<path d="M21.1667 1.5H4.83333C3.18342 1.5 2.35846 1.5 1.8459 1.9809C1.33333 2.4618 1.33333 3.23579 1.33333 4.78377V5.58856C1.33333 6.79937 1.33333 7.40478 1.6362 7.90666C1.93907 8.40853 2.49238 8.72001 3.59902 9.34298L6.99755 11.2561C7.74004 11.674 8.11128 11.8831 8.3771 12.1139C8.93066 12.5944 9.27143 13.1591 9.42585 13.8517C9.5 14.1842 9.5 14.5734 9.5 15.3517V18.4661C9.5 19.5273 9.5 20.0578 9.79391 20.4715C10.0878 20.8851 10.6098 21.0891 11.6539 21.4974C13.8456 22.3542 14.9415 22.7826 15.7208 22.2951C16.5 21.8077 16.5 20.6939 16.5 18.4661V15.3517C16.5 14.5734 16.5 14.1842 16.5742 13.8517C16.7286 13.1591 17.0693 12.5944 17.6229 12.1139C17.8887 11.8831 18.2599 11.674 19.0025 11.2561L22.401 9.34298C23.5076 8.72001 24.0609 8.40853 24.3638 7.90666C24.6667 7.40478 24.6667 6.79937 24.6667 5.58856V4.78377C24.6667 3.23579 24.6667 2.4618 24.1542 1.9809C23.6415 1.5 22.8166 1.5 21.1667 1.5Z" stroke="white" stroke-width="1.5"/>
</svg>
