<svg width="130" height="25" viewBox="0 0 130 25" fill="none" xmlns="http://www.w3.org/2000/svg">
<path d="M13.1562 1.25V24H7.67188V1.25H13.1562ZM20 1.25V5.48438H0.984375V1.25H20ZM28.8594 24.3125C27.4844 24.3125 26.2552 24.099 25.1719 23.6719C24.0885 23.2344 23.1719 22.6354 22.4219 21.875C21.6823 21.1146 21.1146 20.2396 20.7188 19.25C20.3333 18.2604 20.1406 17.2135 20.1406 16.1094V15.5156C20.1406 14.276 20.3125 13.1302 20.6562 12.0781C21 11.0156 21.5104 10.0885 22.1875 9.29688C22.8646 8.50521 23.7135 7.89062 24.7344 7.45312C25.7552 7.00521 26.9427 6.78125 28.2969 6.78125C29.4948 6.78125 30.5677 6.97396 31.5156 7.35938C32.4635 7.74479 33.2656 8.29688 33.9219 9.01562C34.5885 9.73438 35.0938 10.6042 35.4375 11.625C35.7917 12.6458 35.9688 13.7917 35.9688 15.0625V17.2031H22.1562V13.9062H30.8281V13.5C30.8385 12.9375 30.7396 12.4583 30.5312 12.0625C30.3333 11.6667 30.0417 11.3646 29.6562 11.1562C29.2708 10.9479 28.8021 10.8438 28.25 10.8438C27.6771 10.8438 27.2031 10.9688 26.8281 11.2188C26.4635 11.4688 26.1771 11.8125 25.9688 12.25C25.7708 12.6771 25.6302 13.1719 25.5469 13.7344C25.4635 14.2969 25.4219 14.8906 25.4219 15.5156V16.1094C25.4219 16.7344 25.5052 17.3021 25.6719 17.8125C25.849 18.3229 26.099 18.7604 26.4219 19.125C26.7552 19.4792 27.151 19.7552 27.6094 19.9531C28.0781 20.151 28.6094 20.25 29.2031 20.25C29.9219 20.25 30.6302 20.1146 31.3281 19.8438C32.026 19.5729 32.625 19.125 33.125 18.5L35.5156 21.3438C35.1719 21.8333 34.6823 22.3073 34.0469 22.7656C33.4219 23.224 32.6719 23.599 31.7969 23.8906C30.9219 24.1719 29.9427 24.3125 28.8594 24.3125ZM45.25 20.25C45.7396 20.25 46.1562 20.1615 46.5 19.9844C46.8542 19.7969 47.1198 19.5365 47.2969 19.2031C47.4844 18.8594 47.5729 18.4479 47.5625 17.9688H52.5156C52.526 19.2396 52.2135 20.3542 51.5781 21.3125C50.9531 22.2604 50.099 23 49.0156 23.5312C47.9427 24.0521 46.7292 24.3125 45.375 24.3125C44.0521 24.3125 42.8958 24.099 41.9062 23.6719C40.9167 23.2344 40.0885 22.6302 39.4219 21.8594C38.7656 21.0781 38.2708 20.1667 37.9375 19.125C37.6146 18.0833 37.4531 16.9531 37.4531 15.7344V15.375C37.4531 14.1562 37.6146 13.026 37.9375 11.9844C38.2708 10.9323 38.7656 10.0208 39.4219 9.25C40.0885 8.46875 40.9115 7.86458 41.8906 7.4375C42.8802 7 44.0312 6.78125 45.3438 6.78125C46.75 6.78125 47.9896 7.04688 49.0625 7.57812C50.1458 8.10938 50.9948 8.88021 51.6094 9.89062C52.224 10.901 52.526 12.125 52.5156 13.5625H47.5625C47.5729 13.0521 47.4948 12.5938 47.3281 12.1875C47.1615 11.7812 46.901 11.4583 46.5469 11.2188C46.2031 10.9688 45.7604 10.8438 45.2188 10.8438C44.6771 10.8438 44.2396 10.9635 43.9062 11.2031C43.5729 11.4427 43.3177 11.776 43.1406 12.2031C42.974 12.6198 42.8594 13.099 42.7969 13.6406C42.7448 14.1823 42.7188 14.7604 42.7188 15.375V15.7344C42.7188 16.3594 42.7448 16.9479 42.7969 17.5C42.8594 18.0417 42.9792 18.5208 43.1562 18.9375C43.3333 19.3438 43.5885 19.6667 43.9219 19.9062C44.2552 20.1354 44.6979 20.25 45.25 20.25ZM59.9219 0V24H54.6562V0H59.9219ZM59.2969 14.9688L58.0625 15C58.0625 13.8125 58.2083 12.7188 58.5 11.7188C58.7917 10.7188 59.2083 9.84896 59.75 9.10938C60.2917 8.36979 60.9427 7.79688 61.7031 7.39062C62.4635 6.98438 63.3073 6.78125 64.2344 6.78125C65.0677 6.78125 65.8281 6.90104 66.5156 7.14062C67.2135 7.38021 67.8125 7.76562 68.3125 8.29688C68.8229 8.82812 69.2135 9.52083 69.4844 10.375C69.7656 11.2292 69.9062 12.2708 69.9062 13.5V24H64.6094V13.4688C64.6094 12.7812 64.5104 12.25 64.3125 11.875C64.125 11.4896 63.8542 11.224 63.5 11.0781C63.1458 10.9219 62.7135 10.8438 62.2031 10.8438C61.5885 10.8438 61.0885 10.9479 60.7031 11.1562C60.3177 11.3646 60.0208 11.6562 59.8125 12.0312C59.6146 12.3958 59.4792 12.8281 59.4062 13.3281C59.3333 13.8281 59.2969 14.375 59.2969 14.9688Z" fill="white"/>
<path d="M84.7969 17.9531C84.7969 17.599 84.7448 17.2812 84.6406 17C84.5365 16.7083 84.3438 16.4375 84.0625 16.1875C83.7812 15.9375 83.375 15.6875 82.8438 15.4375C82.3229 15.1771 81.6354 14.9062 80.7812 14.625C79.7812 14.2917 78.8177 13.9167 77.8906 13.5C76.9635 13.0729 76.1354 12.5781 75.4062 12.0156C74.6771 11.4427 74.099 10.776 73.6719 10.0156C73.2448 9.24479 73.0312 8.34896 73.0312 7.32812C73.0312 6.34896 73.25 5.46875 73.6875 4.6875C74.125 3.89583 74.7344 3.22396 75.5156 2.67188C76.3073 2.10938 77.2344 1.68229 78.2969 1.39062C79.3594 1.08854 80.5208 0.9375 81.7812 0.9375C83.4479 0.9375 84.9167 1.22917 86.1875 1.8125C87.4688 2.38542 88.4688 3.20312 89.1875 4.26562C89.9167 5.31771 90.2812 6.5625 90.2812 8H84.8281C84.8281 7.42708 84.7083 6.92188 84.4688 6.48438C84.2396 6.04688 83.8906 5.70312 83.4219 5.45312C82.9531 5.20312 82.3646 5.07812 81.6562 5.07812C80.9688 5.07812 80.3906 5.18229 79.9219 5.39062C79.4531 5.59896 79.099 5.88021 78.8594 6.23438C78.6198 6.57812 78.5 6.95833 78.5 7.375C78.5 7.71875 78.5938 8.03125 78.7812 8.3125C78.9792 8.58333 79.2552 8.83854 79.6094 9.07812C79.974 9.31771 80.4115 9.54688 80.9219 9.76562C81.4427 9.98438 82.026 10.1979 82.6719 10.4062C83.8802 10.7917 84.9531 11.224 85.8906 11.7031C86.8385 12.1719 87.6354 12.7083 88.2812 13.3125C88.9375 13.9062 89.4323 14.5833 89.7656 15.3438C90.1094 16.1042 90.2812 16.9635 90.2812 17.9219C90.2812 18.9427 90.0833 19.849 89.6875 20.6406C89.2917 21.4323 88.724 22.1042 87.9844 22.6562C87.2448 23.1979 86.3594 23.6094 85.3281 23.8906C84.2969 24.1719 83.1458 24.3125 81.875 24.3125C80.7083 24.3125 79.5573 24.1667 78.4219 23.875C77.2969 23.5729 76.276 23.1146 75.3594 22.5C74.4427 21.875 73.7083 21.0781 73.1562 20.1094C72.6146 19.1302 72.3438 17.9688 72.3438 16.625H77.8438C77.8438 17.2917 77.9323 17.8542 78.1094 18.3125C78.2865 18.7708 78.5469 19.1406 78.8906 19.4219C79.2344 19.6927 79.6562 19.8906 80.1562 20.0156C80.6562 20.1302 81.2292 20.1875 81.875 20.1875C82.5729 20.1875 83.1354 20.0885 83.5625 19.8906C83.9896 19.6823 84.3021 19.4115 84.5 19.0781C84.6979 18.7344 84.7969 18.3594 84.7969 17.9531ZM105.453 1.25H110.938V16.1094C110.938 17.8802 110.568 19.3802 109.828 20.6094C109.089 21.8281 108.052 22.75 106.719 23.375C105.385 24 103.818 24.3125 102.016 24.3125C100.234 24.3125 98.6667 24 97.3125 23.375C95.9688 22.75 94.9167 21.8281 94.1562 20.6094C93.4062 19.3802 93.0312 17.8802 93.0312 16.1094V1.25H98.5312V16.1094C98.5312 17.0469 98.6667 17.8125 98.9375 18.4062C99.2083 18.9896 99.6042 19.4167 100.125 19.6875C100.646 19.9583 101.276 20.0938 102.016 20.0938C102.766 20.0938 103.396 19.9583 103.906 19.6875C104.417 19.4167 104.802 18.9896 105.062 18.4062C105.323 17.8125 105.453 17.0469 105.453 16.1094V1.25ZM129.422 19.7812V24H117.922V19.7812H129.422ZM119.875 1.25V24H114.391V1.25H119.875Z" fill="#EAB308"/>
</svg>
